<svg width="24" height="23" viewBox="0 0 24 23" fill="none" xmlns="http://www.w3.org/2000/svg">
<path d="M21.2224 13.61C20.6099 13.195 19.8874 13.025 19.1548 13.025H11.7171C11.3996 13.025 11.0821 13.015 10.7646 13.0225C10.7396 13.0225 10.7171 13.025 10.6921 13.0275H10.6871C10.2421 13.065 9.82462 13.3325 9.6046 13.7199C9.4496 13.9949 9.4221 14.2874 9.4221 14.5924V17.3749H3.19946V11.5651C3.19946 11.0426 2.73949 10.5401 2.19946 10.5651C1.65697 10.5901 1.19946 11.0051 1.19946 11.5651V21.9153C1.19946 22.4378 1.65944 22.9403 2.19946 22.9153C2.74196 22.8903 3.19946 22.4753 3.19946 21.9153V19.3753H20.7995V21.9203C20.7995 22.4428 21.2595 22.9453 21.7995 22.9203C22.342 22.8953 22.7995 22.4803 22.7995 21.9203V16.5352C22.792 15.3552 22.1945 14.2676 21.222 13.6102L21.2224 13.61Z" fill="#575A89"/>
<path d="M8.25004 14.8126C8.23504 13.9726 7.70504 13.2476 6.92003 12.9576C6.18253 12.6851 5.28004 12.9301 4.78006 13.5351C4.24256 14.1826 4.13755 15.1101 4.58006 15.8401C5.01756 16.5651 5.85755 16.9101 6.68008 16.7576C7.5801 16.5901 8.22508 15.7526 8.25009 14.8551V14.8526V14.8226V14.8126L8.25004 14.8126Z" fill="#575A89"/>
<path d="M23.115 8.27511C22.865 8.75012 22.1975 8.90011 21.7475 8.63511C21.7425 8.63261 21.735 8.62761 21.73 8.62511C21.31 8.38511 20.9 8.13263 20.485 7.88508C19.63 7.37756 18.775 6.86757 17.92 6.3601C16.935 5.77509 15.95 5.18761 14.9625 4.60261C14.1475 4.11762 13.3326 3.63511 12.5176 3.15012C12.3476 3.04762 12.1751 2.94762 12.0051 2.84512C11.7526 2.99512 11.4951 3.14262 11.2425 3.29262C10.3876 3.80015 9.53256 4.31014 8.67757 4.81761C7.69257 5.40262 6.70756 5.98763 5.72009 6.5751C4.9051 7.06008 4.09011 7.5426 3.27512 8.02758C2.93512 8.23009 2.5926 8.43259 2.25263 8.63508C1.77011 8.92008 1.17514 8.73008 0.885133 8.27508C0.747633 8.06258 0.717631 7.7426 0.785133 7.50507C0.852634 7.26007 1.02763 7.03755 1.24511 6.90758C1.25011 6.90508 1.25761 6.90008 1.26261 6.89758C1.67261 6.64508 2.09259 6.4051 2.50759 6.15756C3.36258 5.65004 4.21757 5.14005 5.07257 4.63257C6.05757 4.04756 7.04257 3.46256 8.02758 2.87508C8.84257 2.3901 9.65756 1.90758 10.4726 1.4226C10.8126 1.2201 11.1551 1.01759 11.495 0.815098C11.8 0.632597 12.2 0.632597 12.5051 0.815098C12.5101 0.817598 12.5176 0.822598 12.5226 0.825098C12.9425 1.0651 13.3525 1.31758 13.7675 1.56512C14.6225 2.07264 15.4775 2.58263 16.3325 3.09011C17.3175 3.67512 18.3025 4.26012 19.2875 4.8476C20.1025 5.33258 20.9175 5.8151 21.7325 6.30008C22.0725 6.50258 22.415 6.70508 22.755 6.90758C23.235 7.19258 23.37 7.79257 23.115 8.27508L23.115 8.27511Z" fill="#575A89"/>
</svg>
