<svg width="32" height="32" viewBox="0 0 32 32" fill="none" xmlns="http://www.w3.org/2000/svg">
<path fill-rule="evenodd" clip-rule="evenodd" d="M12.2659 24.6428C12.084 24.8247 11.8374 24.927 11.5802 24.927L11.5801 24.9271C11.3227 24.9271 11.076 24.8248 10.8944 24.6429C10.7125 24.4613 10.6102 24.2146 10.6105 23.9572V0.969633C10.6105 0.964416 10.6119 0.959642 10.6134 0.95486C10.6148 0.950267 10.6162 0.945666 10.6163 0.940656C10.6226 0.875881 10.6356 0.811841 10.6548 0.749747C10.6653 0.686681 10.6821 0.625074 10.7047 0.565415H10.7045C10.7066 0.56067 10.7075 0.555809 10.7083 0.550973C10.7092 0.545883 10.7101 0.540821 10.7125 0.535951C10.7383 0.497476 10.767 0.460708 10.7982 0.426374C10.835 0.367203 10.8781 0.31217 10.9265 0.262252C10.9738 0.223291 11.0247 0.188958 11.0785 0.159981C11.1291 0.124188 11.1832 0.0937495 11.2399 0.0686686C11.3059 0.0477269 11.3738 0.0340906 11.443 0.0277596C11.4878 0.0150976 11.5336 0.00584415 11.5801 0C11.5855 0 11.5905 0.00151699 11.5954 0.00304063C11.6 0.00444459 11.6045 0.0058542 11.6096 0.00608777C11.7364 0.0272763 11.8616 0.0569826 11.9845 0.0944824H11.9848C11.9893 0.0964527 11.994 0.0972646 11.9987 0.0980733C12.0038 0.0989636 12.0089 0.0998501 12.0138 0.102275L25.7172 6.95442C25.9329 7.06254 26.1007 7.24711 26.1879 7.47211C26.2748 7.69713 26.2748 7.94673 26.1879 8.17173C26.1007 8.39697 25.9329 8.5813 25.7172 8.68942L12.5499 15.2729V23.9571C12.5499 24.2145 12.4478 24.4612 12.2659 24.6428ZM12.5499 2.53911V13.1047L23.1147 7.82222L12.5499 2.53911ZM28.4261 18.3859L31.963 30.7637H31.9627C32.0462 31.0564 31.9878 31.3713 31.8044 31.6143C31.6211 31.8573 31.3342 32 31.0298 32H0.97017C0.665781 32 0.378934 31.8573 0.195577 31.6143C0.012218 31.3713 -0.04622 31.0564 0.0372984 30.7637L3.57415 18.3859C3.6321 18.1833 3.75459 18.0051 3.92284 17.8785C4.0911 17.7516 4.29613 17.6829 4.50701 17.6829H8.04292C8.38944 17.6829 8.70941 17.8678 8.88278 18.1678C9.05591 18.4678 9.05591 18.8374 8.88278 19.1374C8.70936 19.4374 8.38942 19.6222 8.04292 19.6222H5.23803L2.2561 30.0607H29.744L26.7621 19.6222H15.1157C14.7692 19.6222 14.449 19.4375 14.2759 19.1374C14.1028 18.8374 14.1027 18.4678 14.2759 18.1678C14.4491 17.8678 14.7692 17.6829 15.1157 17.6829H27.4933C27.7041 17.6829 27.9092 17.7516 28.0774 17.8785C28.2457 18.0051 28.3682 18.1833 28.4261 18.3859Z" fill="#575A89"/>
</svg>
