<svg width="32" height="32" viewBox="0 0 32 32" fill="none" xmlns="http://www.w3.org/2000/svg">
<path d="M18.0645 14.4274C18.065 14.5295 18.0956 14.6291 18.1526 14.7137C18.2095 14.7983 18.2902 14.8642 18.3845 14.9029C18.4457 14.9319 18.5129 14.946 18.5806 14.9443C18.6485 14.9447 18.7159 14.9316 18.7787 14.9059C18.8416 14.8802 18.8988 14.8423 18.9471 14.7944C19.5522 14.1849 20.2721 13.7016 21.065 13.3725C21.8579 13.0434 22.7081 12.8749 23.5664 12.8769H24.258V11.8432H23.5664C21.9698 11.8393 20.4134 12.3443 19.1225 13.2852C19.2774 11.3168 20.1306 9.46882 21.5277 8.07547L20.7948 7.34155C19.9272 8.20787 19.2394 9.23746 18.7708 10.3711C18.3022 11.5047 18.0621 12.7199 18.0645 13.9468V14.4274Z" fill="#575A89"/>
<path d="M19.0968 30.9663V20.5882C19.2675 20.615 19.4401 20.6288 19.6129 20.6295C20.3065 20.629 20.9887 20.4535 21.5967 20.1193C22.2047 19.7851 22.7188 19.3029 23.0916 18.7172C23.6205 18.9558 24.1941 19.0792 24.7742 19.079C25.8693 19.079 26.9195 18.6434 27.6939 17.868C28.4682 17.0925 28.9032 16.0409 28.9032 14.9443C28.9058 14.004 28.5851 13.0914 27.9948 12.3601C28.5851 11.6287 28.9058 10.7162 28.9032 9.77586C28.9038 8.76212 28.5324 7.78351 27.8596 7.02599C27.1869 6.26847 26.2597 5.78483 25.2542 5.66698C25.2791 5.48717 25.2911 5.30582 25.2903 5.1243C25.2887 4.40734 25.1009 3.70313 24.7454 3.08078C24.39 2.45843 23.879 1.93934 23.2627 1.57446C22.6464 1.20958 21.9459 1.01145 21.23 0.999523C20.5141 0.987594 19.8075 1.16227 19.1794 1.50642C18.9099 1.05631 18.5307 0.682049 18.0774 0.418695C17.624 0.155342 17.1114 0.0115076 16.5874 0.00066233C16.0634 -0.0101829 15.5452 0.112316 15.0814 0.356687C14.6176 0.601057 14.2233 0.959305 13.9355 1.39788C13.2916 1.02683 12.5349 0.902987 11.8065 1.04943C11.0781 1.19588 10.4278 1.60263 9.97677 2.19382C9.18364 1.95318 8.33655 1.95711 7.54568 2.20509C6.75481 2.45307 6.05676 2.93362 5.54231 3.58425C5.02787 4.23488 4.72085 5.02547 4.66118 5.85319C4.60151 6.68092 4.79195 7.50747 5.20774 8.22534C4.57117 8.5822 4.04037 9.10159 3.66939 9.73063C3.29841 10.3597 3.10049 11.0759 3.09577 11.8064C3.09105 12.537 3.2797 13.2557 3.64252 13.8895C4.00534 14.5233 4.52938 15.0495 5.16129 15.4146V18.0453C5.16129 18.1824 5.21567 18.3138 5.31246 18.4108C5.40925 18.5077 5.54053 18.5621 5.67742 18.5621H6.19355V19.5958H5.16129V20.6295H6.19355V25.7979H5.16129V26.8316H6.19355V28.899H7.22581V26.8316H9.29032V28.899H10.3226V26.8316H11.3548V25.7979H10.3226V20.6295H11.3548V19.5958H10.3226V18.5621H11.7006C12.0734 18.8373 12.3764 19.1962 12.5853 19.6101C12.7941 20.0239 12.903 20.4811 12.9032 20.9448V30.9663H0V32H32V30.9663H19.0968ZM6.19355 17.5285V16.4948H8.25806V17.5285H6.19355ZM13.3677 14.4274H15.4839V15.4611H13.4194V14.9443C13.418 14.7708 13.4007 14.5978 13.3677 14.4274ZM15.4839 13.3937H12.9032C12.6661 13.0681 12.3555 12.8031 11.9968 12.6204C11.638 12.4377 11.2412 12.3424 10.8387 12.3424C10.4362 12.3424 10.0394 12.4377 9.68065 12.6204C9.32188 12.8031 9.01129 13.0681 8.77419 13.3937H6.19355V11.3264H15.4839V13.3937ZM8.30968 14.4274C8.27667 14.5978 8.25939 14.7708 8.25806 14.9443V15.4611H6.19355V14.4274H8.30968ZM9.29032 14.9443C9.29032 14.533 9.45345 14.1387 9.74383 13.8479C10.0342 13.5571 10.4281 13.3937 10.8387 13.3937C11.2494 13.3937 11.6432 13.5571 11.9336 13.8479C12.224 14.1387 12.3871 14.533 12.3871 14.9443V17.5285H9.29032V14.9443ZM13.4194 16.4948H15.4839V17.5285H13.4194V16.4948ZM6.92129 10.2927L10.8387 6.36989L14.7561 10.2927H6.92129ZM9.29032 23.7306H7.22581V22.6969H9.29032V23.7306ZM7.22581 25.7979V24.7642H9.29032V25.7979H7.22581ZM9.29032 21.6632H7.22581V20.6295H9.29032V21.6632ZM9.29032 19.5958H7.22581V18.5621H9.29032V19.5958ZM13.1458 18.5621H16C16.1369 18.5621 16.2682 18.5077 16.365 18.4108C16.4618 18.3138 16.5161 18.1824 16.5161 18.0453V10.8095C16.5165 10.7415 16.5035 10.6741 16.4778 10.6111C16.4521 10.5482 16.4143 10.4909 16.3665 10.4426L11.2052 5.27418C11.1572 5.22574 11.1001 5.18729 11.0372 5.16105C10.9743 5.13481 10.9068 5.1213 10.8387 5.1213C10.7706 5.1213 10.7031 5.13481 10.6402 5.16105C10.5773 5.18729 10.5202 5.22574 10.4723 5.27418L5.31097 10.4426C5.26313 10.4909 5.22529 10.5482 5.1996 10.6111C5.17392 10.6741 5.1609 10.7415 5.16129 10.8095V14.1535C4.76464 13.7965 4.46678 13.343 4.29658 12.8368C4.12637 12.3307 4.08959 11.7891 4.18978 11.2646C4.28998 10.74 4.52377 10.2503 4.86849 9.84275C5.21321 9.43525 5.65719 9.1238 6.15742 8.93858C6.23542 8.91044 6.3055 8.86389 6.36173 8.80287C6.41796 8.74186 6.45868 8.66818 6.48046 8.58807C6.50223 8.50796 6.50441 8.42378 6.48681 8.34265C6.46921 8.26152 6.43235 8.18582 6.37935 8.12197C6.00815 7.66777 5.77329 7.11741 5.70206 6.53484C5.63083 5.95227 5.72617 5.36142 5.97698 4.83096C6.22779 4.30049 6.62379 3.8522 7.11894 3.53816C7.6141 3.22413 8.18808 3.05726 8.77419 3.05694C9.18017 3.05539 9.58224 3.13627 9.95613 3.29469C10.0741 3.34133 10.205 3.34287 10.324 3.29903C10.443 3.25518 10.5417 3.169 10.6013 3.05694C10.7508 2.78806 10.959 2.55649 11.2105 2.37956C11.4619 2.20263 11.75 2.08491 12.0533 2.0352C12.3566 1.9855 12.6672 2.00509 12.9618 2.09253C13.2565 2.17996 13.5276 2.33296 13.7548 2.5401C13.8176 2.59686 13.8933 2.63732 13.9753 2.6579C14.0574 2.67849 14.1432 2.67858 14.2253 2.65816C14.3073 2.63774 14.3831 2.59744 14.446 2.54081C14.5089 2.48417 14.5569 2.41294 14.5858 2.33336C14.7377 1.93679 15.0079 1.5967 15.3597 1.35935C15.7115 1.122 16.1277 0.998912 16.5518 1.00682C16.9759 1.01472 17.3872 1.15325 17.7299 1.40354C18.0726 1.65384 18.33 2.00376 18.4671 2.40572C18.4926 2.48508 18.5369 2.55707 18.5962 2.61557C18.6555 2.67407 18.7281 2.71733 18.8077 2.74167C18.8866 2.76513 18.9698 2.7694 19.0506 2.75412C19.1314 2.73884 19.2074 2.70444 19.2723 2.6538C19.7315 2.29979 20.2807 2.08192 20.8574 2.02498C21.4342 1.96803 22.0153 2.07429 22.5347 2.33166C23.0542 2.58904 23.491 2.98722 23.7957 3.4809C24.1003 3.97458 24.2605 4.54397 24.2581 5.1243C24.2561 5.42685 24.2127 5.7277 24.129 6.01843C24.1049 6.09696 24.0998 6.18012 24.1141 6.26101C24.1285 6.34191 24.1619 6.41821 24.2116 6.48359C24.2628 6.54876 24.329 6.60062 24.4044 6.63481C24.4799 6.66899 24.5625 6.68449 24.6452 6.67999H24.7742C25.3899 6.67945 25.9917 6.86269 26.5029 7.20632C27.0141 7.54994 27.4114 8.03835 27.644 8.60916C27.8767 9.17997 27.9342 9.80727 27.8091 10.4109C27.6841 11.0146 27.3821 11.5673 26.9419 11.9983C26.8936 12.0463 26.8552 12.1035 26.829 12.1665C26.8028 12.2295 26.7893 12.297 26.7893 12.3652C26.7893 12.4335 26.8028 12.501 26.829 12.564C26.8552 12.627 26.8936 12.6841 26.9419 12.7322C27.4869 13.2655 27.8164 13.9812 27.8674 14.7425C27.9184 15.5038 27.6873 16.2572 27.2184 16.8586C26.7494 17.46 26.0755 17.8672 25.3256 18.0022C24.5757 18.1372 23.8023 17.9906 23.1535 17.5905C23.0918 17.5521 23.0226 17.5271 22.9506 17.5173C22.8785 17.5075 22.8052 17.5131 22.7355 17.5336C22.6659 17.5542 22.6015 17.5892 22.5463 17.6364C22.4912 17.6836 22.4466 17.742 22.4155 17.8076C22.1663 18.3415 21.7704 18.7933 21.274 19.11C20.7777 19.4267 20.2015 19.5953 19.6129 19.5958C19.4398 19.5966 19.267 19.581 19.0968 19.5493C19.1396 18.3121 19.6611 17.14 20.551 16.2807C21.4409 15.4214 22.6296 14.9422 23.8658 14.9443H24.2581V13.9106H23.8658C23.1038 13.9099 22.3491 14.0597 21.6449 14.3514C20.9408 14.6431 20.301 15.071 19.7622 15.6106C19.2233 16.1501 18.796 16.7908 18.5047 17.496C18.2134 18.2011 18.0638 18.9568 18.0645 19.7199V30.9663H16V26.3148H14.9677V30.9663H13.9355V20.9448C13.9362 20.086 13.6592 19.2501 13.1458 18.5621Z" fill="#575A89"/>
<path d="M17.5484 9.25913H17.5794C17.6516 9.25432 17.722 9.23435 17.786 9.20051C17.8501 9.16668 17.9063 9.11973 17.951 9.06273L20.0155 6.47853L19.2103 5.83765L17.5071 7.96703L15.8503 6.30797L15.1174 7.04188L17.1819 9.10925C17.2302 9.15715 17.2874 9.19504 17.3503 9.22077C17.4131 9.24649 17.4805 9.25952 17.5484 9.25913Z" fill="#575A89"/>
<path d="M17.0323 20.6294H16V25.281H17.0323V20.6294Z" fill="#575A89"/>
</svg>
