<svg width="32" height="32" viewBox="0 0 32 32" fill="none" xmlns="http://www.w3.org/2000/svg">
<path d="M15.0895 8.59536C13.0458 13.4751 11.5443 21.3154 11.8782 26.3624L23.5976 25.0695H23.6807L27.6011 23.5263C27.5594 16.1441 22.5127 8.92882 15.5477 8.34469C15.3391 8.30303 15.1724 8.42803 15.0891 8.59494L15.0895 8.59536ZM31.8553 22.3586L30.6038 22.1083C30.2702 12.641 24.2228 6.00923 18.0501 4.71653C17.3826 4.63344 16.6322 5.42561 15.9231 6.71825C15.7143 7.09375 15.9231 7.51063 16.3402 7.55235C23.3885 8.63667 28.4768 15.8101 28.56 23.1505L29.8112 22.6502L31.5216 22.9838L31.6046 22.9422L31.9382 22.6502C32.0632 22.525 31.9796 22.4 31.8549 22.3583L31.8553 22.3586ZM11.3771 26.6961C11.419 26.6542 11.6274 26.6961 11.669 26.8628C11.7107 27.0294 11.5859 27.113 11.5438 27.113C11.4185 27.1547 11.2519 27.0714 11.2102 26.9047C11.1688 26.738 11.2938 26.6961 11.3771 26.6961ZM10.543 26.1537L11.0016 27.2797C11.0016 27.3213 11.1271 27.4049 11.1688 27.4049L11.9611 27.488C12.2114 27.5297 12.2947 27.2797 12.2114 27.1125L11.8778 26.362L11.4192 26.4037L10.543 26.1537ZM31.2713 22.6921C31.1047 22.6921 30.9794 22.6504 30.9794 22.5668C30.9794 22.5252 31.1049 22.4838 31.2713 22.4838C31.4377 22.4838 31.5632 22.5254 31.5632 22.5668C31.5635 22.6504 31.438 22.6921 31.2713 22.6921ZM0.617263 22.4002C0.450101 22.4002 0.325345 22.3585 0.325345 22.2749C0.325345 22.2333 0.450596 22.1918 0.617263 22.1918C0.78393 22.1918 0.909181 22.2335 0.909181 22.2749C0.909429 22.3585 0.78393 22.4002 0.617263 22.4002ZM16.7157 4.54997C16.4238 4.5083 16.1738 4.5083 15.8816 4.5083C9.0416 4.42497 1.53428 11.4315 1.11714 21.8169L0.199738 21.9836C0.0325758 22.0253 -0.0505099 22.1919 0.032576 22.3172L0.199738 22.6508C0.241405 22.6924 0.324989 22.7338 0.408069 22.7338L1.65956 22.5255L4.95449 24.4442C4.99616 24.4861 5.03758 24.4861 5.03758 24.4861L10.5847 26.1542C10.1675 20.3154 13.3374 5.96814 16.7155 4.55036L16.7157 4.54997Z" fill="#575A89"/>
</svg>
