<svg width="32" height="30" viewBox="0 0 32 30" fill="none" xmlns="http://www.w3.org/2000/svg">
<path d="M15.9937 0.403363C15.7132 0.403363 15.4326 0.558561 15.2643 0.837916L0.114391 28.1527C-0.110052 28.5872 0.0021699 29.177 0.394945 29.4563C0.787721 29.7357 1.32081 29.5805 1.54525 29.146L3.59352 25.452L5.72547 29.1767C5.8938 29.4251 6.17435 29.5805 6.45491 29.5805H25.5326C25.8131 29.5805 26.0937 29.4253 26.234 29.146L28.3662 25.4212L30.4143 29.1149C30.5826 29.3943 30.8632 29.5495 31.1437 29.5495C31.284 29.5495 31.4523 29.5184 31.5926 29.4253C31.9854 29.1459 32.1256 28.5873 31.8731 28.1526L16.7232 0.837873C16.5549 0.558518 16.2744 0.40332 15.9938 0.40332L15.9937 0.403363ZM15.9937 3.10355L27.3839 23.6521L25.0555 27.7182H15.9932L15.9937 3.10355ZM15.1801 4.22154L14.1143 17.5682C13.6093 21.8206 11.3927 25.5448 8.11014 27.7179H6.93156L4.60319 23.6518L15.1801 4.22154Z" fill="#575A89"/>
</svg>
