<svg width="17" height="20" viewBox="0 0 17 20" fill="none" xmlns="http://www.w3.org/2000/svg">
<path fill-rule="evenodd" clip-rule="evenodd" d="M0 7.82968C0 7.82968 0.161329 7.5332 0.730173 7.39377C1.04701 7.31627 1.34401 6.51065 2.27178 6.1714C3.19955 5.83197 3.75095 6.21297 4.08763 6.38576C4.42449 6.55838 5.09821 7.04699 5.09821 7.04699C5.09821 7.04699 6.4595 4.78855 9.7564 3.05961C13.0533 1.33067 16.4556 0 16.4556 0C16.4556 0 16.9002 0.806817 16.5362 1.83621C16.1721 2.86577 14.7472 3.9068 13.6512 4.62585C12.5555 5.34474 9.64485 6.79567 8.36705 7.7036C7.08925 8.61152 7.18882 8.42231 5.65148 9.82004C4.11415 11.2178 3.84641 12.1842 3.84641 12.1842C3.84641 12.1842 3.87002 11.0137 3.02796 9.59216C2.18607 8.17082 0 7.82968 0 7.82968Z" fill="#F15025"/>
<path fill-rule="evenodd" clip-rule="evenodd" d="M5.11386 16.6925C5.11386 16.6925 3.65197 15.0317 5.96379 11.9354C8.27543 8.83938 16.0617 5.75873 16.0617 5.75873C16.0617 5.75873 16.5811 6.80762 15.908 8.07054C15.235 9.33346 12.8862 10.6677 9.01005 12.9287C5.13405 15.1899 5.11386 16.6925 5.11386 16.6925Z" fill="#A2D729"/>
<path fill-rule="evenodd" clip-rule="evenodd" d="M8.37839 15.9214C8.37839 15.9214 6.86193 16.4737 6.3776 17.7879C5.8931 19.102 7.52521 20 7.52521 20C7.52521 20 7.44823 19.0736 7.76096 18.0324C8.0737 16.9912 8.37839 15.9214 8.37839 15.9214Z" fill="#3D5A80"/>
</svg>
