<svg width="326" height="104" viewBox="0 0 326 104" fill="none" xmlns="http://www.w3.org/2000/svg">
<path d="M27.4709 87.7552C31.9322 87.7552 35.4237 87.0307 37.9454 85.5818C40.467 84.1329 41.7278 82.0883 41.7278 79.4481C41.7278 77.967 41.4045 76.6951 40.758 75.6326C40.1114 74.57 39.1415 73.588 37.8484 72.6865C36.7492 73.2016 35.4884 73.6846 34.0659 74.1354C32.6435 74.5862 30.9624 74.8115 29.0227 74.8115C25.7251 74.8115 22.9287 73.8134 20.6334 71.8171C18.338 69.8208 17.1904 66.8264 17.1904 62.8338C17.1904 60.8376 17.5137 59.0989 18.1602 57.6177C18.8068 56.1366 19.6635 54.897 20.7304 53.8989C21.7972 52.9007 23.058 52.1441 24.5128 51.6289C25.9676 51.1137 27.5032 50.8561 29.1197 50.8561C30.9301 50.8561 32.6111 51.0976 34.1629 51.5806C35.7147 52.0636 37.0402 52.5626 38.1394 53.0778C38.9152 52.3051 39.5941 51.3874 40.1761 50.3249C40.758 49.2623 41.0489 48.1193 41.0489 46.8958C41.0489 44.2555 39.7881 42.0983 37.2665 40.424C34.7448 38.7497 31.1564 37.9125 26.501 37.9125C23.0095 37.9125 19.6958 38.4277 16.56 39.458C13.4241 40.4884 10.66 42.0339 8.26767 44.0945C5.87535 46.1552 3.98412 48.7794 2.59399 51.967C1.20386 55.1546 0.508789 58.8735 0.508789 63.1236C0.508789 66.7942 1.15536 70.1428 2.44851 73.1694C3.74165 76.1961 5.56822 78.788 7.92822 80.9453C10.2882 83.1026 13.117 84.7768 16.4145 85.9682C19.712 87.1595 23.3975 87.7552 27.4709 87.7552ZM211.55 87.079C213.037 87.079 214.476 86.9824 215.866 86.7892C217.256 86.596 218.275 86.4029 218.921 86.2097V55.7825C218.921 52.4983 218.372 49.7131 217.272 47.427C216.173 45.141 214.702 43.3057 212.86 41.9212C211.017 40.5367 208.915 39.5224 206.555 38.8785C204.196 38.2345 201.787 37.9125 199.33 37.9125C195.903 37.9125 192.977 38.3311 190.553 39.1682C188.128 40.0054 185.946 41.0679 184.006 42.3559C182.131 40.8747 179.917 39.7639 177.363 39.0233C174.809 38.2828 172.206 37.9125 169.555 37.9125C165.999 37.9125 162.589 38.3955 159.323 39.3614C156.058 40.3274 153.326 41.5831 151.128 43.1286C149.835 44.0301 148.817 44.9961 148.073 46.0264C147.329 47.0568 146.958 48.4413 146.958 50.18V79.3515C146.958 80.9614 147.168 82.2654 147.588 83.2635C148.008 84.2617 148.606 85.0505 149.382 85.6301C150.158 86.2097 151.112 86.596 152.243 86.7892C153.375 86.9824 154.652 87.079 156.074 87.079C157.561 87.079 159 86.9824 160.39 86.7892C161.78 86.596 162.799 86.4029 163.445 86.2097V52.3051C164.027 51.9831 164.738 51.645 165.579 51.2908C166.419 50.9366 167.422 50.7596 168.585 50.7596C170.267 50.7596 171.705 51.1942 172.901 52.0636C174.098 52.9329 174.696 54.3335 174.696 56.2654V79.3515C174.696 80.9614 174.906 82.2654 175.326 83.2635C175.746 84.2617 176.344 85.0505 177.12 85.6301C177.896 86.2097 178.85 86.596 179.981 86.7892C181.113 86.9824 182.39 87.079 183.812 87.079C185.235 87.079 186.641 86.9824 188.031 86.7892C189.421 86.596 190.472 86.4029 191.183 86.2097V53.4159C191.183 53.1905 191.151 52.949 191.086 52.6914C191.603 52.2407 192.379 51.806 193.414 51.3874C194.448 50.9688 195.418 50.7596 196.323 50.7596C198.199 50.7596 199.686 51.1942 200.785 52.0636C201.884 52.9329 202.434 54.3335 202.434 56.2654V79.3515C202.434 80.9614 202.644 82.2654 203.064 83.2635C203.484 84.2617 204.082 85.0505 204.858 85.6301C205.634 86.2097 206.588 86.596 207.719 86.7892C208.851 86.9824 210.128 87.079 211.55 87.079ZM238.027 103.5C239.515 103.5 240.969 103.387 242.392 103.162C243.814 102.937 244.849 102.727 245.495 102.534V86.4994C247.888 87.3366 250.474 87.7552 253.254 87.7552C256.94 87.7552 260.286 87.24 263.292 86.2097C266.299 85.1793 268.869 83.6177 271.003 81.5248C273.136 79.432 274.785 76.84 275.949 73.749C277.113 70.658 277.695 67.0518 277.695 62.9304C277.695 58.6159 277.016 54.897 275.658 51.7738C274.3 48.6506 272.425 46.0586 270.033 43.998C267.641 41.9373 264.779 40.4079 261.45 39.4097C258.12 38.4116 254.515 37.9125 250.636 37.9125C246.95 37.9125 243.62 38.2989 240.646 39.0716C237.672 39.8444 235.183 40.8747 233.178 42.1627C231.885 43.0642 230.867 44.0623 230.123 45.1571C229.38 46.2518 229.008 47.6685 229.008 49.4072V95.7725C229.008 97.3824 229.202 98.6864 229.59 99.6846C229.978 100.683 230.56 101.472 231.335 102.051C232.111 102.631 233.065 103.017 234.197 103.21C235.328 103.403 236.605 103.5 238.027 103.5ZM250.83 74.8115C249.795 74.8115 248.825 74.6827 247.92 74.4252C247.015 74.1676 246.174 73.8456 245.398 73.4592V52.2085C246.11 51.8221 246.95 51.484 247.92 51.1942C248.89 50.9044 249.989 50.7596 251.218 50.7596C254.321 50.7596 256.697 51.7577 258.346 53.754C259.995 55.7503 260.819 58.8091 260.819 62.9304C260.819 70.8512 257.489 74.8115 250.83 74.8115ZM303.687 87.9484C310.864 87.9484 316.295 86.5638 319.981 83.7948C323.666 81.0258 325.509 77.1942 325.509 72.3001C325.509 68.3719 324.199 65.1682 321.581 62.689C318.962 60.2097 314.549 58.2617 308.342 56.845L305.336 56.1688C303.525 55.7825 302.297 55.3639 301.65 54.9131C301.004 54.4623 300.68 53.8828 300.68 53.1744C300.68 52.1441 301.262 51.3874 302.426 50.9044C303.59 50.4215 305.239 50.18 307.372 50.18C308.407 50.18 309.555 50.2766 310.815 50.4698C312.076 50.663 313.321 50.9044 314.549 51.1942C315.778 51.484 316.909 51.806 317.944 52.1602C318.978 52.5143 319.754 52.8524 320.272 53.1744C321.112 52.4661 321.807 51.5806 322.357 50.5181C322.906 49.4555 323.181 48.1837 323.181 46.7026C323.181 45.1571 322.729 43.8209 321.823 42.6939C320.918 41.567 319.69 40.6493 318.138 39.941C316.586 39.2326 314.759 38.7014 312.658 38.3472C310.557 37.993 308.31 37.8159 305.918 37.8159C302.749 37.8159 299.856 38.1701 297.237 38.8785C294.619 39.5868 292.372 40.585 290.497 41.8729C288.622 43.1608 287.167 44.7707 286.132 46.7026C285.098 48.6345 284.581 50.7918 284.581 53.1744C284.581 57.5534 285.955 60.9181 288.703 63.2685C291.451 65.619 295.637 67.3416 301.262 68.4363L304.172 69.0159C305.982 69.3379 307.275 69.7564 308.051 70.2716C308.827 70.7868 309.215 71.4951 309.215 72.3967C309.215 73.3626 308.682 74.1354 307.615 74.7149C306.548 75.2945 305.012 75.5843 303.008 75.5843C299.84 75.5843 297.043 75.1818 294.619 74.3769C292.194 73.5719 290.044 72.6543 288.169 71.6239C287.264 72.3323 286.488 73.2177 285.842 74.2803C285.195 75.3428 284.872 76.6468 284.872 78.1923C284.872 79.8666 285.34 81.3156 286.278 82.5391C287.215 83.7626 288.509 84.7768 290.157 85.5818C291.806 86.3868 293.794 86.9824 296.122 87.3688C298.45 87.7552 300.971 87.9484 303.687 87.9484Z" fill="white"/>
<path d="M73.0114 34.0077C78.9763 34.0077 83.8118 29.0633 83.8118 22.9641C83.8118 16.8648 78.9763 11.9204 73.0114 11.9204C67.0465 11.9204 62.2109 16.8648 62.2109 22.9641C62.2109 29.0633 67.0465 34.0077 73.0114 34.0077Z" fill="#A2D729"/>
<path d="M62.5535 48.3589C65.9599 48.3589 68.7213 45.5353 68.7213 42.0523C68.7213 38.5692 65.9599 35.7456 62.5535 35.7456C59.1471 35.7456 56.3857 38.5692 56.3857 42.0523C56.3857 45.5353 59.1471 48.3589 62.5535 48.3589Z" fill="#A2D729"/>
<path d="M125.095 25.5988C131.06 25.5988 135.896 20.6544 135.896 14.5551C135.896 8.45589 131.06 3.51147 125.095 3.51147C119.13 3.51147 114.295 8.45589 114.295 14.5551C114.295 20.6544 119.13 25.5988 125.095 25.5988Z" fill="#A2D729"/>
<path d="M99.9986 17.3103L66.7773 75.9568H132.589L99.9986 17.3103Z" fill="#F15025"/>
<path d="M94.4873 75.957H101.415L94.5897 38.0093L94.4873 75.957Z" fill="#B74C49"/>
<g opacity="0.5">
<path opacity="0.5" d="M100.811 30.6496C100.608 30.6503 100.421 30.5114 100.323 30.2876L98.1065 25.3029C97.9961 25.0856 97.9904 24.8094 98.0917 24.5851C98.193 24.3608 98.3846 24.2253 98.5898 24.2327C98.7949 24.2402 98.98 24.3895 99.0708 24.6207L101.288 29.6053C101.382 29.8213 101.378 30.0837 101.278 30.2953C101.178 30.5069 100.996 30.6363 100.8 30.6357L100.811 30.6496Z" fill="white"/>
</g>
<g opacity="0.5">
<path opacity="0.5" d="M121.594 68.9921C121.391 68.9928 121.204 68.8479 121.106 68.6144L118.9 63.4288C118.79 63.202 118.784 62.9139 118.886 62.6799C118.987 62.446 119.179 62.3045 119.384 62.3123C119.589 62.3201 119.774 62.4758 119.865 62.7171L122.082 67.9172C122.176 68.1425 122.172 68.4162 122.072 68.637C121.972 68.8578 121.79 68.9928 121.594 68.9921Z" fill="white"/>
</g>
<path d="M54.2749 84.7975L138.163 84.9589C138.911 84.9589 139.516 84.3567 139.516 83.614C139.516 82.8712 138.911 82.2691 138.163 82.2691L54.2749 82.1077C53.5277 82.1077 52.9219 82.7098 52.9219 83.4526C52.9219 84.1953 53.5277 84.7975 54.2749 84.7975Z" fill="white"/>
<path d="M60.3635 49.8567V72.8546C60.3635 73.5974 60.9692 74.1996 61.7165 74.1996C62.1073 74.1957 62.4773 74.024 62.7313 73.7288C62.9853 74.024 63.3553 74.1957 63.7461 74.1996H128.692C129.176 74.2015 129.625 73.9459 129.868 73.5294C130.111 73.113 130.111 72.5991 129.869 72.1822L124.809 63.3596V28.0558C131.141 27.3424 135.811 21.8395 135.452 15.5154C135.092 9.19133 129.828 4.24615 123.456 4.24615C117.083 4.24615 111.819 9.19133 111.46 15.5154C111.101 21.8395 115.771 27.3424 122.103 28.0558V58.6524L98.0457 16.772L106.516 2.24696C106.782 1.83005 106.798 1.3014 106.555 0.870024C106.313 0.438644 105.852 0.173977 105.356 0.180539C104.859 0.187349 104.405 0.464312 104.175 0.90205L96.4897 14.0687L88.9397 0.90205C88.5661 0.255838 87.7361 0.0330478 87.086 0.404434C86.4359 0.77582 86.2118 1.60075 86.5854 2.24696L94.866 16.7585L82.8781 37.4029C82.6114 37.8198 82.5962 38.3484 82.8384 38.7798C83.0806 39.2112 83.5413 39.4758 84.0382 39.4692C84.5352 39.4625 84.9885 39.1855 85.2188 38.7478L96.4761 19.4618L126.365 71.5097H97.5721V34.861C97.5721 34.1182 96.9663 33.5161 96.2191 33.5161C95.4718 33.5161 94.866 34.1182 94.866 34.861V71.5097H66.1004L82.161 43.9795C82.4276 43.5626 82.4428 43.0339 82.2006 42.6025C81.9584 42.1712 81.4978 41.9065 81.0008 41.9132C80.5038 41.9199 80.0506 42.1968 79.8202 42.6346L73.3797 53.6628V36.179C79.7117 35.4657 84.382 29.9627 84.0226 23.6387C83.6632 17.3146 78.3992 12.3694 72.0267 12.3694C65.6542 12.3694 60.3902 17.3146 60.0308 23.6387C59.6714 29.9627 64.3417 35.4657 70.6736 36.179V57.7244C70.6783 57.8668 70.7057 58.0075 70.7548 58.1414L63.0696 71.3349V49.8164C66.8522 49.1212 69.4783 45.675 69.1272 41.8674C68.776 38.0598 65.5632 35.1457 61.7165 35.1457C57.8698 35.1457 54.657 38.0598 54.3059 41.8674C53.9547 45.675 56.5809 49.1212 60.3635 49.8164V49.8567ZM114.147 16.234C114.135 11.2956 118.026 7.21806 122.988 6.96995C127.95 6.72183 132.234 10.3906 132.72 15.3053C133.206 20.2199 129.724 24.6481 124.809 25.3659V16.7047C124.809 15.962 124.203 15.3598 123.456 15.3598C122.709 15.3598 122.103 15.962 122.103 16.7047V25.339C117.542 24.673 114.158 20.7893 114.147 16.2071V16.234ZM62.7313 24.3035C62.7191 19.3651 66.6105 15.2875 71.5725 15.0394C76.5345 14.7913 80.8179 18.4601 81.3044 23.3747C81.7908 28.2894 78.3087 32.7176 73.3933 33.4354V24.7742C73.3933 24.0314 72.7875 23.4293 72.0402 23.4293C71.293 23.4293 70.6872 24.0314 70.6872 24.7742V33.4085C66.1263 32.7425 62.7426 28.8587 62.7313 24.2766V24.3035ZM61.7165 37.8869C64.0717 37.8725 66.0776 39.5852 66.4183 41.9017C66.759 44.2181 65.3303 46.4299 63.0696 47.0862V42.9304C63.0696 42.1877 62.4638 41.5855 61.7165 41.5855C60.9692 41.5855 60.3635 42.1877 60.3635 42.9304V47.0862C58.1027 46.4299 56.6741 44.2181 57.0148 41.9017C57.3555 39.5852 59.3613 37.8725 61.7165 37.8869Z" fill="white"/>
<path d="M60.7017 76.8894C59.9544 76.8894 59.3486 77.4915 59.3486 78.2343C59.3486 78.9771 59.9544 79.5792 60.7017 79.5792H74.5703C75.3176 79.5792 75.9234 78.9771 75.9234 78.2343C75.9234 77.4915 75.3176 76.8894 74.5703 76.8894H60.7017Z" fill="white"/>
<path d="M120.236 76.8894C119.489 76.8894 118.883 77.4915 118.883 78.2343C118.883 78.9771 119.489 79.5792 120.236 79.5792H134.105C134.852 79.5792 135.458 78.9771 135.458 78.2343C135.458 77.4915 134.852 76.8894 134.105 76.8894H120.236Z" fill="white"/>
<path d="M90.4683 76.8894C89.721 76.8894 89.1152 77.4915 89.1152 78.2343C89.1152 78.9771 89.721 79.5792 90.4683 79.5792H112.455C113.202 79.5792 113.808 78.9771 113.808 78.2343C113.808 77.4915 113.202 76.8894 112.455 76.8894H90.4683Z" fill="white"/>
</svg>
