<svg xmlns="http://www.w3.org/2000/svg" data-name="Layer 1" viewBox="0 0 128 160" x="0px" y="0px"><title>travle</title><circle cx="40.01625" cy="22.63531" r="7.19318" transform="translate(-1.22867 2.32487) rotate(-3.27756)"/><path d="M109.21466,36.07463h-3.3406a4.79075,4.79075,0,0,0-3.59585,1.627L92.48871,48.83554l-7.00477.48765a4.78616,4.78616,0,0,0-3.924,2.5932L75.9497,62.88623l-7.456-.948a4.78757,4.78757,0,0,0-4.14734,1.53586L44.89054,84.94892,42.2108,83.012a4.78984,4.78984,0,0,0-5.31864-.19141L16.26961,95.58151A4.79907,4.79907,0,0,0,14,99.65132v8.12141a4.78478,4.78478,0,0,0,4.78534,4.78534h90.42932A4.78478,4.78478,0,0,0,114,107.77273V40.86A4.78478,4.78478,0,0,0,109.21466,36.07463ZM67.69157,88.68605,49.1062,94.547l20.659-22.801,8.31282,1.05734L66.5522,83.67284Zm33.15559-15.53186,4.42528,3.4181L96.74543,89.634l-1.35812-9.34281-9.88512,2.853,5.469-10.75105-2.88491-5.39149,4.55747-7.68389,12.62873-.93428-6.55359,7.32383Z"/><path d="M58.23626,34.945a3.27867,3.27867,0,0,0-4.7603-4.3205l-.9986-.9055a2.06784,2.06784,0,1,0-2.77864,3.06316l1.03485.94172L48.81911,35.9954l-8.71555-.62969c-.89089-.06437-1.77442-.19688-2.66131-.303a6.559,6.559,0,0,0-4.985,1.49082A5.46,5.46,0,0,0,29.11163,34.493a5.59451,5.59451,0,0,0-6.37,4.23089L19.44034,52.02162a2.38717,2.38717,0,0,0,1.74164,2.892l4.83,1.19914a11.25516,11.25516,0,0,0-.08388,4.87434v.00518l.00025.00057.51717,12.00893s-1.9999,6.56027-3.1226,10.29681A1.00479,1.00479,0,0,0,24.815,84.441l7.05282-4.3639a1.00515,1.00515,0,0,0,.432-.55982l1.5139-4.93219a3.73462,3.73462,0,0,0,.16043-1.26252l-.30729-7.03589a1.49218,1.49218,0,0,1,.91645-1.45005,6.54663,6.54663,0,0,0,1.86434-1.15934,1.52671,1.52671,0,0,1,1.35888-.35921L42.729,64.46425l.0488,12.02272a.99249.99249,0,0,0,.65055.93358q.40627.14578.80183.32825a.99512.99512,0,0,0,1.15231-.24051l4.62344-5.10216a1.00515,1.00515,0,0,0,.26031-.67934l-.04491-10.26364a3.745,3.745,0,0,0-2.90276-3.6375l-5.8653-1.36477a1.8317,1.8317,0,0,1-1.35808-2.24326l2.777-10.72293a1.601,1.601,0,0,1,1.653-1.19981c2.06144.13257,5.82108.37247,5.91856.365a3.28641,3.28641,0,0,0,2.32331-1.159L55.5974,38.1427l18.99,17.24442a.50257.50257,0,0,0,.78517-.14295l1.48123-2.8919a.50257.50257,0,0,0-.10946-.60118Z"/><text x="0" y="143" fill="#000000" font-size="5px" font-weight="bold" font-family="'Helvetica Neue', Helvetica, Arial-Unicode, Arial, Sans-serif">Created by Izaz Mahmud Sakib</text><text x="0" y="148" fill="#000000" font-size="5px" font-weight="bold" font-family="'Helvetica Neue', Helvetica, Arial-Unicode, Arial, Sans-serif">from the Noun Project</text></svg>