<svg width="25" height="24" viewBox="0 0 25 24" fill="none" xmlns="http://www.w3.org/2000/svg">
<path d="M8.34386 16.1937L12.5376 14.3244L16.7314 16.1937L12.5376 7.80629L8.34386 16.1937Z" fill="black"/>
<path d="M22.0111 13.0358L24.5372 12L22.0111 10.9642C21.5309 6.54319 17.994 3.00627 13.573 2.52615L12.5372 0L11.5015 2.52615C7.08042 3.00636 3.5435 6.54319 3.06338 10.9642L0.537231 12L3.06338 13.0358C3.54359 17.4568 7.08042 20.9937 11.5015 21.4739L12.5372 24L13.573 21.4739C17.994 20.9936 21.531 17.4568 22.0111 13.0358ZM12.5372 20.0337C8.11615 20.0337 4.50355 16.4461 4.50355 12.0001C4.50355 7.55343 8.11615 3.96643 12.5372 3.96643C16.9582 3.96643 20.5708 7.55399 20.5708 12.0001C20.5708 16.4467 16.9582 20.0337 12.5372 20.0337Z" fill="black"/>
</svg>
