<svg width="44" height="32" viewBox="0 0 44 32" fill="none" xmlns="http://www.w3.org/2000/svg">
<path d="M37.1853 13.9058C36.8593 13.7875 36.5135 13.6988 36.1677 13.6397C36.0393 13.62 35.9109 13.6002 35.7726 13.5805L33.9943 13.5707C34.3697 13.5313 34.7451 13.5115 35.1205 13.5313C35.3379 13.5411 35.5552 13.5608 35.7726 13.5805C35.7726 13.5115 35.7726 13.4426 35.7726 13.3736C35.7726 5.98214 29.766 0 22.3665 0C14.967 0 8.96043 5.99199 8.96043 13.3736V13.3834C9.08886 13.3736 9.21729 13.3736 9.34572 13.3736H9.4939C9.69149 13.3736 9.88907 13.3834 10.0867 13.3933L8.95055 13.3834C6.53015 13.482 4.33697 14.4971 2.73654 16.1035C1.04719 17.7887 0 20.1146 0 22.6868C0 27.8312 4.1789 32 9.33584 32H34.0338C36.6123 32 38.9438 30.9553 40.6331 29.2701C42.3225 27.5849 43.3697 25.259 43.3697 22.6868C43.3993 18.6363 40.8109 15.1869 37.1853 13.9058Z" fill="#607299"/>
</svg>
