<svg width="33" height="32" viewBox="0 0 33 32" fill="none" xmlns="http://www.w3.org/2000/svg">
<path d="M21.5844 26.8037C21.539 26.8038 21.494 26.8042 21.4488 26.8061C20.3639 26.8451 19.3547 27.3379 18.6234 28.3521C18.5397 28.4678 18.501 28.6099 18.5143 28.752C18.5276 28.8941 18.5921 29.0265 18.6958 29.1246L21.5626 31.8385C21.6419 31.9138 21.7407 31.9654 21.8477 31.9877C21.9548 32.0099 22.0659 32.0019 22.1687 31.9646C22.2714 31.9272 22.3618 31.862 22.4295 31.7762C22.4973 31.6904 22.5398 31.5874 22.5523 31.4787L23.0029 27.5567C23.0196 27.4129 22.9828 27.2681 22.8995 27.1498C22.8161 27.0314 22.6921 26.948 22.5512 26.9153C22.2265 26.8404 21.9025 26.8032 21.5844 26.8037Z" fill="#FF6600"/>
<path d="M11.5287 26.7922C11.1988 26.7881 10.8558 26.8291 10.5022 26.9187C10.364 26.9537 10.2432 27.0376 10.1623 27.155C10.0813 27.2723 10.0457 27.415 10.062 27.5566L10.5126 31.4787C10.5251 31.5873 10.5676 31.6903 10.6354 31.7761C10.7031 31.8619 10.7934 31.9272 10.8962 31.9645C10.999 32.0019 11.1101 32.0099 11.2172 31.9876C11.3242 31.9653 11.4229 31.9137 11.5023 31.8385L14.3691 29.1245C14.4742 29.0251 14.539 28.8904 14.5511 28.7462C14.5631 28.602 14.5217 28.4584 14.4346 28.3429C13.747 27.4305 12.7874 26.8547 11.669 26.7968C11.6224 26.7945 11.5759 26.7928 11.5287 26.7922Z" fill="#FF6600"/>
<path d="M4.87205 20.5459C4.78789 20.5566 4.70703 20.5853 4.63501 20.6302C4.56299 20.675 4.50151 20.7349 4.45479 20.8057L2.27996 24.1001C2.21982 24.1914 2.18626 24.2975 2.18303 24.4067C2.1798 24.5159 2.20702 24.6239 2.26166 24.7185C2.31631 24.8131 2.39621 24.8907 2.49242 24.9424C2.58863 24.9942 2.69736 25.0182 2.80643 25.0117L6.74687 24.7749C6.8913 24.7663 7.02751 24.7048 7.1295 24.6022C7.23149 24.4996 7.2921 24.363 7.29977 24.2185C7.37939 22.6973 6.70309 21.3254 5.20196 20.5999C5.09952 20.5504 4.98493 20.5317 4.87205 20.5459Z" fill="#FF6600"/>
<path d="M28.1848 20.5448C28.0701 20.532 27.9542 20.5531 27.8514 20.6057C26.4942 21.2974 25.644 22.5684 25.7663 24.2312C25.7769 24.3732 25.8386 24.5066 25.9401 24.6066C26.0415 24.7066 26.1758 24.7664 26.318 24.7749L30.2584 25.0117C30.3675 25.0182 30.4762 24.9942 30.5725 24.9424C30.6687 24.8906 30.7486 24.8131 30.8032 24.7185C30.8579 24.6239 30.8851 24.5159 30.8818 24.4067C30.8786 24.2975 30.8451 24.1913 30.7849 24.1001L28.6101 20.8057C28.5626 20.7337 28.4999 20.673 28.4265 20.6279C28.353 20.5828 28.2705 20.5545 28.1848 20.5448Z" fill="#FF6600"/>
<path d="M28.3963 12.0064C28.2811 12.0066 28.1686 12.0406 28.0725 12.1041C27.9765 12.1677 27.9012 12.258 27.856 12.3639C27.2609 13.7661 27.4258 15.2873 28.5883 16.4825C28.6877 16.5846 28.8208 16.6472 28.9628 16.6586C29.1049 16.67 29.2463 16.6295 29.3607 16.5446L32.5321 14.1927C32.6199 14.1276 32.6878 14.0393 32.7283 13.9378C32.7687 13.8362 32.7801 13.7255 32.7611 13.6178C32.7421 13.5102 32.6936 13.41 32.6208 13.3284C32.5481 13.2468 32.4541 13.1871 32.3494 13.1559L28.5653 12.0305C28.5104 12.0143 28.4535 12.0062 28.3963 12.0064Z" fill="#FF6600"/>
<path d="M4.66628 12.0064C4.60985 12.0064 4.55372 12.0145 4.49961 12.0305L0.7155 13.1559C0.610749 13.187 0.516743 13.2468 0.444023 13.3284C0.371304 13.41 0.322741 13.5102 0.303768 13.6178C0.284795 13.7254 0.296162 13.8362 0.3366 13.9378C0.377039 14.0393 0.444957 14.1276 0.532731 14.1927L3.70416 16.5445C3.82032 16.6306 3.96405 16.6709 4.10799 16.6577C4.25193 16.6446 4.38601 16.5789 4.48467 16.4733C5.52348 15.3591 5.88787 13.873 5.20424 12.3524C5.15747 12.249 5.08181 12.1613 4.98636 12.0999C4.89092 12.0385 4.77976 12.0061 4.66628 12.0064Z" fill="#FF6600"/>
<path d="M6.39626 3.72204C6.3015 3.70932 6.20507 3.71988 6.11531 3.75281C6.02554 3.78573 5.94515 3.84003 5.88108 3.911C5.81701 3.98197 5.77121 4.06748 5.74761 4.16014C5.72402 4.25279 5.72334 4.3498 5.74566 4.44277L6.66295 8.2832C6.69663 8.42399 6.78103 8.54742 6.89999 8.62991C7.01895 8.7124 7.16414 8.74816 7.30781 8.73035C8.81974 8.5446 10.0531 7.64141 10.5068 6.0371C10.5459 5.89982 10.5337 5.75302 10.4726 5.62402C10.4115 5.49503 10.3056 5.39264 10.1746 5.33592L6.55259 3.76572C6.50275 3.74401 6.45014 3.72931 6.39626 3.72204Z" fill="#FF6600"/>
<path d="M26.7951 3.71974C26.6985 3.71154 26.6013 3.72732 26.5123 3.7657L22.8903 5.33591C22.7574 5.39346 22.6504 5.49797 22.5898 5.62945C22.5291 5.76093 22.519 5.91016 22.5615 6.04859C23.007 7.5053 24.111 8.56318 25.7697 8.73148C25.9115 8.74597 26.0538 8.70852 26.17 8.62608C26.2863 8.54363 26.3687 8.42179 26.4019 8.28318L27.3192 4.44275C27.3531 4.3003 27.3326 4.15036 27.2618 4.0222C27.191 3.89403 27.075 3.79685 26.9364 3.74961C26.8907 3.73388 26.8432 3.72386 26.7951 3.71974Z" fill="#FF6600"/>
<path d="M16.5324 1.5385e-09C16.4231 -7.90092e-06 16.316 0.0304264 16.223 0.0878818C16.13 0.145337 16.0549 0.227546 16.006 0.325305L14.2404 3.85653C14.1758 3.98587 14.1611 4.13445 14.199 4.27394C14.237 4.41344 14.3249 4.53408 14.4461 4.61289C15.7237 5.44244 17.2503 5.54325 18.6291 4.606C18.7468 4.52586 18.8315 4.40576 18.8675 4.26794C18.9034 4.13013 18.8881 3.98396 18.8245 3.85654L17.0589 0.325314C17.01 0.227555 16.9349 0.145346 16.8419 0.0878908C16.7489 0.0304354 16.6417 -7.90092e-06 16.5324 1.5385e-09Z" fill="#FF6600"/>
<path d="M16.5324 6.47391C11.0137 6.47391 6.52731 10.9603 6.52731 16.479C6.52731 21.9977 11.0137 26.4842 16.5324 26.4842C22.0511 26.4842 26.5376 21.9977 26.5376 16.479C26.5376 10.9603 22.0511 6.47391 16.5324 6.47391Z" fill="#FF6600"/>
</svg>
