<svg width="33" height="32" viewBox="0 0 33 32" fill="none" xmlns="http://www.w3.org/2000/svg">
<path d="M32.4423 16.0002C32.4423 15.1093 31.7296 14.3966 30.8387 14.3966H26.7057L30.3765 10.7258C31.0182 10.0841 31.0182 9.08601 30.3765 8.44572C29.7348 7.804 28.7367 7.804 28.0964 8.44572L22.1802 14.3965H18.0458V10.262L23.9966 4.31131C24.6383 3.66958 24.6383 2.67151 23.9966 2.03121C23.3548 1.38949 22.3568 1.38949 21.7165 2.03121L18.0457 5.73658V1.60359C18.0457 0.712707 17.333 0 16.4421 0C15.5512 0 14.8385 0.712707 14.8385 1.60359V5.738L11.1677 2.06578C10.526 1.42406 9.5279 1.42406 8.8876 2.06578C8.24588 2.7075 8.24588 3.70558 8.8876 4.34587L14.8038 10.2966V14.431L10.6694 14.4324L4.75319 8.44533C4.11147 7.80361 3.1134 7.80361 2.4731 8.44533C1.83138 9.08705 1.83138 10.0851 2.4731 10.7254L6.1439 14.3962H1.97349C1.08261 14.3962 0.369904 15.1089 0.369904 15.9998C0.369904 16.8907 1.08261 17.6034 1.97349 17.6034H6.14247L2.4731 21.2742C1.83138 21.9159 1.83138 22.914 2.4731 23.5543C3.11482 24.196 4.1129 24.196 4.75319 23.5543L10.7039 17.6035H14.8383V21.7379L8.8876 27.6527C8.24588 28.2944 8.24588 29.2925 8.8876 29.9328C9.52933 30.5745 10.5274 30.5745 11.1677 29.9328L14.8385 26.262V30.3964C14.8385 31.2873 15.5512 32 16.4421 32C17.333 32 18.0457 31.2873 18.0457 30.3964V26.2634L21.7165 29.9342C22.3582 30.5759 23.3563 30.5759 23.9966 29.9342C24.6383 29.2925 24.6383 28.2944 23.9966 27.6541L18.0458 21.7379V17.6035H22.1802L28.131 23.5543C28.7727 24.196 29.7708 24.196 30.4111 23.5543C31.0528 22.9126 31.0528 21.9145 30.4111 21.2742L26.7057 17.6034H30.8401C31.7296 17.6034 32.4423 16.8907 32.4423 15.9998L32.4423 16.0002Z" fill="#0080FF"/>
</svg>
