<svg width="32" height="24" viewBox="0 0 32 24" fill="none" xmlns="http://www.w3.org/2000/svg">
<path d="M27.4367 10.4548C27.1962 10.3675 26.9411 10.3021 26.686 10.2585C26.5912 10.2439 26.4964 10.2294 26.3944 10.2148L25.0823 10.2076C25.3593 10.1785 25.6363 10.1639 25.9133 10.1785C26.0737 10.1857 26.234 10.2003 26.3944 10.2148C26.3944 10.1639 26.3944 10.113 26.3944 10.0621C26.3944 4.60843 21.9625 0.19458 16.5029 0.19458C11.0432 0.19458 6.61135 4.61571 6.61135 10.0621V10.0694C6.70611 10.0621 6.80087 10.0621 6.89563 10.0621H7.00497C7.15076 10.0621 7.29654 10.0694 7.44233 10.0767L6.60406 10.0694C4.8182 10.1421 3.19998 10.8911 2.01912 12.0764C0.772661 13.3198 0 15.0359 0 16.9338C0 20.7295 3.08335 23.8054 6.88834 23.8054H25.1115C27.014 23.8054 28.7342 23.0346 29.9807 21.7912C31.2272 20.5478 31.9998 18.8317 31.9998 16.9338C32.0217 13.9452 30.1119 11.4001 27.4367 10.4548Z" fill="#607299"/>
</svg>
