<svg width="88" height="100" viewBox="0 0 88 100" fill="none" xmlns="http://www.w3.org/2000/svg">
<path fill-rule="evenodd" clip-rule="evenodd" d="M43.7483 99.9871C43.5502 99.9871 43.352 99.944 43.1625 99.8449C34.0226 95.1027 28.4401 88.1338 27.5271 80.4715L39.1908 60.4255C40.5906 61.0414 42.1241 61.386 43.7435 61.386C45.363 61.386 46.9093 61.0458 48.2962 60.4384L59.9511 80.6179C58.9906 88.2243 53.4128 95.1419 44.3245 99.8579C44.135 99.9569 43.9368 100 43.7387 100L43.7483 99.9871ZM36.9903 59.1464L25.2141 79.382C22.8452 80.3641 20.2651 80.8464 17.5085 80.8464C12.1849 80.8464 6.41706 78.9728 0.856435 75.4193C0.503248 75.1997 0.292192 74.825 0.270657 74.4029C-0.194514 64.1819 3.01436 55.8906 9.12619 51.2606H32.4239C32.7857 54.4824 34.4957 57.3036 36.9766 59.1427L36.9903 59.1464ZM32.4333 48.7273H9.13562C3.02798 44.0842 -0.180819 35.8054 0.280085 25.585C0.301621 25.1759 0.512677 24.7925 0.865864 24.5685C6.42219 21.0193 12.1812 19.1414 17.518 19.1414C20.3177 19.1414 22.9321 19.6497 25.3485 20.6619L37.0034 40.8413C34.5225 42.6848 32.8039 45.506 32.4507 48.7234L32.4333 48.7273ZM39.1956 39.5616L27.5407 19.3821C28.5012 11.7757 34.079 4.85813 43.1673 0.142133C43.5291 -0.0473777 43.9728 -0.0473777 44.3346 0.142133C53.4185 4.86276 58.9876 11.7761 59.9612 19.3821L48.3063 39.5616C46.9065 38.9456 45.3731 38.614 43.7536 38.614C42.1342 38.614 40.5878 38.9543 39.2009 39.5616H39.1956ZM50.4977 40.8409L62.1526 20.6614C64.556 19.6449 67.1791 19.141 69.9831 19.141C75.3068 19.141 81.0658 21.0146 86.6352 24.5681C86.9884 24.7877 87.1995 25.1625 87.221 25.5846C87.6862 35.8055 84.4773 44.0968 78.3655 48.7268H55.0678C54.706 45.4964 52.996 42.6752 50.5151 40.8447L50.4977 40.8409ZM55.0633 51.2599H78.361C84.4686 55.903 87.6774 64.1818 87.2165 74.4022C87.195 74.8113 86.9839 75.1947 86.6308 75.4187C81.0744 78.9678 75.3155 80.8458 69.9787 80.8458C67.1789 80.8458 64.5645 80.3375 62.1481 79.3253L50.4932 59.1459C52.9742 57.3024 54.6927 54.4812 55.0459 51.2638L55.0633 51.2599ZM43.748 41.1509C38.8722 41.1509 34.9053 45.1222 34.9053 49.9935C34.9053 54.8693 38.8766 58.8362 43.748 58.8362C48.6237 58.8362 52.5906 54.8649 52.5906 49.9935C52.5906 45.1178 48.6193 41.1509 43.748 41.1509Z" fill="#FF00C4"/>
</svg>
