<svg width="98" height="100" viewBox="0 0 98 100" fill="none" xmlns="http://www.w3.org/2000/svg">
<path fill-rule="evenodd" clip-rule="evenodd" d="M50.4725 76.1921C56.5275 76.2309 62.5719 75.6807 68.5204 74.5495C74.3896 73.4266 80.147 71.7829 85.7242 69.6377L78.1795 59.9569C77.9788 59.6999 77.8883 59.3738 77.928 59.0502C77.9676 58.7265 78.1341 58.4319 78.3908 58.2309L78.4354 58.1989L97.7273 44.4802L90.018 41.2247C89.7177 41.0982 89.4799 40.8576 89.357 40.5557C89.234 40.2539 89.2359 39.9156 89.3624 39.6153C89.3836 39.5659 89.4076 39.5179 89.4343 39.4713L96.6432 27.1747L67.2228 35.2438C67.0218 35.2988 66.8102 35.3017 66.6078 35.2524C66.4053 35.203 66.2188 35.103 66.0657 34.9616C65.9126 34.8203 65.798 34.6424 65.7326 34.4445C65.6673 34.2467 65.6534 34.0355 65.6921 33.8308L69.1818 14.4521L61.0716 20.0778C60.9387 20.1701 60.7888 20.2352 60.6307 20.2694C60.4725 20.3036 60.3091 20.3063 60.1499 20.2772C59.9907 20.2481 59.8388 20.1879 59.703 20.0999C59.5671 20.012 59.45 19.8981 59.3582 19.7648C59.314 19.7043 59.2758 19.6396 59.244 19.5717L49.2388 0L39.2256 19.5717C39.1939 19.6396 39.1556 19.7043 39.1114 19.7648C39.0197 19.8981 38.9025 20.012 38.7666 20.0999C38.6308 20.1879 38.4789 20.2481 38.3197 20.2772C38.1605 20.3063 37.9971 20.3036 37.839 20.2694C37.6808 20.2352 37.5309 20.1701 37.398 20.0778L29.2878 14.4521L32.79 33.8308C32.8288 34.0355 32.8149 34.2467 32.7496 34.4445C32.6842 34.6424 32.5696 34.8203 32.4165 34.9616C32.2634 35.103 32.0769 35.203 31.8744 35.2524C31.672 35.3017 31.4604 35.2988 31.2594 35.2438L1.83439 27.1747L9.04214 39.4702C9.06863 39.5173 9.09265 39.5657 9.11411 39.6153C9.24053 39.9156 9.24248 40.2539 9.11952 40.5557C8.99657 40.8576 8.75878 41.0982 8.45844 41.2247L0.750366 44.4802L20.0411 58.1966L20.0857 58.2286C20.3424 58.4296 20.5089 58.7243 20.5485 59.0479C20.5881 59.3715 20.4977 59.6976 20.297 59.9546L12.758 69.6354C18.3352 71.7806 24.0926 73.4243 29.9618 74.5472C35.9103 75.6785 41.9547 76.2286 48.0097 76.1898V59.741L29.2159 50.3561C28.9277 50.2079 28.7094 49.9522 28.6083 49.6443C28.5073 49.3364 28.5315 49.0011 28.6758 48.711C28.8201 48.4209 29.0729 48.1992 29.3794 48.0941C29.686 47.9889 30.0216 48.0087 30.3136 48.1492L48.0052 56.9858V28.5009C48.0052 28.1737 48.1351 27.8599 48.3665 27.6286C48.5978 27.3972 48.9116 27.2673 49.2388 27.2673C49.566 27.2673 49.8798 27.3972 50.1111 27.6286C50.3425 27.8599 50.4725 28.1737 50.4725 28.5009V56.9858L68.164 48.1492C68.4561 48.0087 68.7917 47.9889 69.0982 48.0941C69.4047 48.1992 69.6575 48.4209 69.8018 48.711C69.9461 49.0011 69.9704 49.3364 69.8693 49.6443C69.7682 49.9522 69.55 50.2079 69.2618 50.3561L50.4725 59.741V76.1898V76.1921ZM48.365 82.5134C48.3668 82.352 48.4005 82.1925 48.464 82.0441C48.5275 81.8957 48.6196 81.7613 48.7351 81.6485C48.8505 81.5357 48.9871 81.4467 49.1369 81.3867C49.2867 81.3267 49.4469 81.2967 49.6083 81.2986C49.7697 81.3005 49.9292 81.3341 50.0776 81.3976C50.226 81.4611 50.3604 81.5532 50.4733 81.6687C50.5861 81.7841 50.675 81.9207 50.7351 82.0705C50.7951 82.2204 50.825 82.3806 50.8232 82.542L50.6175 98.7851C50.6138 99.1111 50.4806 99.4222 50.2475 99.65C50.0143 99.8779 49.7001 100.004 49.3742 99.9999C49.0482 99.9961 48.7371 99.863 48.5093 99.6298C48.2814 99.3967 48.1556 99.0825 48.1594 98.7566L48.365 82.5134Z" fill="#82441A"/>
</svg>
