<svg width="32" height="34" viewBox="0 0 32 34" fill="none" xmlns="http://www.w3.org/2000/svg">
<path opacity="0.4" fill-rule="evenodd" clip-rule="evenodd" d="M0 16.0663C0 7.65347 6.81997 0.833496 15.2328 0.833496C23.6457 0.833496 30.4657 7.65347 30.4657 16.0663C30.4657 19.8203 29.1077 23.2572 26.8562 25.9124L31.1323 30.1774C31.8166 30.8599 31.818 31.968 31.1355 32.6523C30.453 33.3366 29.3449 33.338 28.6606 32.6555L24.301 28.3072C21.7674 30.1871 18.63 31.2992 15.2328 31.2992C6.81997 31.2992 0 24.4792 0 16.0663ZM29.7199 31.5935C29.7197 31.5933 29.7195 31.5931 29.7193 31.5929L29.7199 31.5935ZM15.2328 4.3335C8.75297 4.3335 3.5 9.58647 3.5 16.0663C3.5 22.5462 8.75297 27.7992 15.2328 27.7992C21.7127 27.7992 26.9657 22.5462 26.9657 16.0663C26.9657 9.58647 21.7127 4.3335 15.2328 4.3335Z" fill="black"/>
</svg>
