<svg width="102" height="100" viewBox="0 0 102 100" fill="none" xmlns="http://www.w3.org/2000/svg">
<path d="M66.7954 83.7616C66.6534 83.7618 66.5128 83.7631 66.3715 83.769C62.9811 83.8909 59.8275 85.4308 57.542 88.6004C57.2807 88.9618 57.1595 89.4059 57.2012 89.8499C57.2428 90.294 57.4444 90.7078 57.7683 91.0143L66.7271 99.4954C66.9751 99.7305 67.2836 99.8919 67.6182 99.9615C67.9527 100.031 68.3 100.006 68.6211 99.8893C68.9422 99.7726 69.2245 99.5687 69.4363 99.3005C69.648 99.0323 69.7809 98.7105 69.82 98.371L71.2281 86.1146C71.2804 85.6654 71.1653 85.2127 70.9049 84.843C70.6444 84.4732 70.257 84.2124 69.8164 84.1103C68.8017 83.8761 67.7894 83.7599 66.7954 83.7616Z" fill="#FF6600"/>
<path d="M35.3713 83.7257C34.3404 83.7128 33.2684 83.841 32.1635 84.1208C31.7317 84.2302 31.3542 84.4926 31.1012 84.8592C30.8481 85.2259 30.7368 85.6719 30.7877 86.1145L32.1959 98.3709C32.235 98.7103 32.3678 99.0322 32.5796 99.3004C32.7913 99.5685 33.0736 99.7724 33.3947 99.8891C33.7158 100.006 34.0632 100.031 34.3977 99.9613C34.7322 99.8917 35.0408 99.7303 35.2887 99.4952L44.2475 91.0142C44.5759 90.7034 44.7783 90.2825 44.8161 89.8319C44.8538 89.3813 44.7243 88.9326 44.4523 88.5715C42.3034 85.7203 39.3048 83.9209 35.8096 83.7401C35.6639 83.7327 35.5186 83.7275 35.3713 83.7257Z" fill="#FF6600"/>
<path d="M14.5692 64.206C14.3062 64.2394 14.0535 64.3292 13.8284 64.4693C13.6034 64.6094 13.4113 64.7965 13.2653 65.0178L6.46892 75.3129C6.28097 75.598 6.1761 75.9297 6.166 76.271C6.1559 76.6123 6.24096 76.9497 6.41173 77.2453C6.58249 77.541 6.83219 77.7833 7.13285 77.9451C7.43351 78.1069 7.77329 78.1818 8.11412 78.1615L20.428 77.4215C20.8793 77.3947 21.305 77.2026 21.6237 76.882C21.9424 76.5613 22.1318 76.1344 22.1558 75.6829C22.4046 70.9291 20.2912 66.6419 15.6002 64.3748C15.28 64.2201 14.9219 64.1615 14.5692 64.206Z" fill="#FF6600"/>
<path d="M87.4215 64.2024C87.0631 64.1624 86.7008 64.2286 86.3797 64.3928C82.1384 66.5542 79.4814 70.5263 79.8636 75.7224C79.8967 76.1663 80.0897 76.5831 80.4068 76.8956C80.7239 77.208 81.1435 77.3949 81.5878 77.4215L93.9017 78.1615C94.2425 78.1818 94.5823 78.1069 94.883 77.9451C95.1836 77.7833 95.4333 77.541 95.6041 77.2453C95.7749 76.9496 95.8599 76.6123 95.8498 76.271C95.8397 75.9297 95.7348 75.598 95.5469 75.3129L88.7506 65.0178C88.6023 64.7929 88.4064 64.6032 88.1767 64.4623C87.947 64.3214 87.6892 64.2327 87.4215 64.2024Z" fill="#FF6600"/>
<path d="M88.0824 37.5199C87.7226 37.5206 87.3708 37.6268 87.0708 37.8254C86.7707 38.0239 86.5354 38.3062 86.3941 38.6371C84.5345 43.0191 85.0496 47.773 88.6823 51.5078C88.993 51.8269 89.4089 52.0224 89.8529 52.0581C90.2968 52.0937 90.7386 51.9671 91.0963 51.7017L101.007 44.3522C101.281 44.1487 101.493 43.8729 101.62 43.5556C101.746 43.2383 101.782 42.892 101.722 42.5557C101.663 42.2193 101.511 41.9061 101.284 41.6512C101.057 41.3962 100.763 41.2095 100.436 41.1121L88.6105 37.5954C88.4391 37.5447 88.2612 37.5193 88.0824 37.5199Z" fill="#FF6600"/>
<path d="M13.9262 37.52C13.7498 37.52 13.5744 37.5454 13.4053 37.5954L1.57997 41.1121C1.25263 41.2095 0.958857 41.3962 0.731609 41.6511C0.504362 41.9061 0.352603 42.2193 0.293312 42.5557C0.23402 42.892 0.269542 43.2382 0.395912 43.5555C0.522283 43.8728 0.734526 44.1487 1.00882 44.3522L10.9195 51.7017C11.2825 51.9705 11.7317 52.0964 12.1815 52.0553C12.6313 52.0143 13.0503 51.8091 13.3586 51.479C16.6049 47.9973 17.7436 43.3532 15.6073 38.6012C15.4611 38.2781 15.2247 38.0041 14.9264 37.8123C14.6282 37.6204 14.2808 37.5189 13.9262 37.52Z" fill="#FF6600"/>
<path d="M19.3324 11.6314C19.0362 11.5916 18.7349 11.6246 18.4544 11.7275C18.1739 11.8304 17.9226 12.0001 17.7224 12.2219C17.5222 12.4437 17.3791 12.7109 17.3053 13.0004C17.2316 13.29 17.2295 13.5931 17.2992 13.8836L20.1657 25.885C20.271 26.325 20.5347 26.7107 20.9065 26.9685C21.2783 27.2263 21.732 27.338 22.1809 27.2823C26.9057 26.7019 30.7598 23.8794 32.1779 18.8659C32.2999 18.4369 32.2619 17.9782 32.0709 17.5751C31.88 17.172 31.5491 16.852 31.1397 16.6747L19.8209 11.7679C19.6651 11.7 19.5007 11.6541 19.3324 11.6314Z" fill="#FF6600"/>
<path d="M83.0786 11.6242C82.7767 11.5985 82.4732 11.6479 82.1949 11.7678L70.8761 16.6747C70.4609 16.8546 70.1266 17.1811 69.937 17.592C69.7475 18.0029 69.7161 18.4692 69.8487 18.9018C71.2408 23.4541 74.6909 26.7599 79.8744 27.2859C80.3175 27.3312 80.762 27.2141 81.1254 26.9565C81.4887 26.6988 81.7462 26.3181 81.8501 25.8849L84.7166 13.8836C84.8223 13.4384 84.7584 12.9699 84.5372 12.5694C84.316 12.1688 83.9535 11.8651 83.5204 11.7175C83.3776 11.6684 83.2292 11.6371 83.0786 11.6242Z" fill="#FF6600"/>
<path d="M51.0079 4.80782e-09C50.6663 -2.46904e-05 50.3315 0.0950826 50.041 0.274631C49.7504 0.454179 49.5155 0.711082 49.3627 1.01658L43.8452 12.0516C43.6434 12.4558 43.5974 12.9202 43.716 13.3561C43.8346 13.792 44.1094 14.169 44.4882 14.4153C48.4807 17.0076 53.2511 17.3227 57.56 14.3938C57.9279 14.1433 58.1926 13.768 58.3048 13.3373C58.4171 12.9067 58.3694 12.4499 58.1706 12.0517L52.6531 1.0166C52.5003 0.71111 52.2655 0.454207 51.9749 0.274659C51.6844 0.0951107 51.3495 -2.46904e-05 51.0079 4.80782e-09Z" fill="#FF6600"/>
<path d="M51.0079 20.231C33.762 20.231 19.7419 34.2511 19.7419 51.497C19.7419 68.7429 33.762 82.763 51.0079 82.763C68.2538 82.763 82.2739 68.7429 82.2739 51.497C82.2739 34.2511 68.2538 20.231 51.0079 20.231Z" fill="#FF6600"/>
</svg>
