<svg width="53" height="53" viewBox="0 0 53 53" fill="none" xmlns="http://www.w3.org/2000/svg">
<circle cx="26.5" cy="26.5" r="26" fill="white"/>
<path d="M43.3027 21.832L39.5938 31.6816H38.6914L42.4121 21.832H43.3027ZM40.543 23.6309V25.2598C40.543 25.6855 40.502 26.0059 40.4199 26.2207C40.3418 26.4316 40.1699 26.6172 39.9043 26.7773C39.6426 26.9336 39.2949 27.0117 38.8613 27.0117C38.3613 27.0117 37.9805 26.9375 37.7188 26.7891C37.457 26.6367 37.2793 26.4551 37.1855 26.2441C37.0957 26.0332 37.0508 25.7305 37.0508 25.3359V23.6309C37.0508 23.1621 37.0977 22.8164 37.1914 22.5938C37.2891 22.3672 37.4746 22.1836 37.748 22.043C38.0215 21.9023 38.3594 21.832 38.7617 21.832C39.207 21.832 39.5684 21.9102 39.8457 22.0664C40.123 22.2188 40.3086 22.4043 40.4023 22.623C40.4961 22.8418 40.543 23.1777 40.543 23.6309ZM39.043 23.2148C39.043 22.9648 39.0293 22.8105 39.002 22.752C38.9785 22.6934 38.9102 22.6641 38.7969 22.6641C38.6914 22.6641 38.623 22.6953 38.5918 22.7578C38.5605 22.8203 38.5449 22.9727 38.5449 23.2148V25.6055C38.5449 25.8789 38.5586 26.043 38.5859 26.0977C38.6133 26.1523 38.6855 26.1797 38.8027 26.1797C38.9043 26.1797 38.9688 26.1484 38.9961 26.0859C39.0273 26.0234 39.043 25.877 39.043 25.6465V23.2148ZM44.9434 28.2129V29.8477C44.9434 30.2695 44.9023 30.5879 44.8203 30.8027C44.7422 31.0176 44.5703 31.2051 44.3047 31.3652C44.043 31.5215 43.6953 31.5996 43.2617 31.5996C42.7656 31.5996 42.3848 31.5234 42.1191 31.3711C41.8574 31.2188 41.6797 31.0371 41.5859 30.8262C41.4961 30.6152 41.4512 30.3145 41.4512 29.9238V28.2129C41.4512 27.748 41.498 27.4043 41.5918 27.1816C41.6895 26.9551 41.875 26.7715 42.1484 26.6309C42.4219 26.4863 42.7598 26.4141 43.1621 26.4141C43.6113 26.4141 43.9746 26.4922 44.252 26.6484C44.5293 26.8047 44.7129 26.9922 44.8027 27.2109C44.8965 27.4297 44.9434 27.7637 44.9434 28.2129ZM43.4434 27.8027C43.4434 27.5527 43.4297 27.3984 43.4023 27.3398C43.3789 27.2773 43.3105 27.2461 43.1973 27.2461C43.0918 27.2461 43.0234 27.2773 42.9922 27.3398C42.9648 27.4023 42.9512 27.5566 42.9512 27.8027V30.1934C42.9512 30.4629 42.9648 30.625 42.9922 30.6797C43.0195 30.7344 43.0898 30.7617 43.2031 30.7617C43.3086 30.7617 43.375 30.7324 43.4023 30.6738C43.4297 30.6113 43.4434 30.4629 43.4434 30.2285V27.8027Z" fill="#FF5733"/>
<path d="M31.5625 24.3809C32.6406 24.7441 33.4434 25.3418 33.9707 26.1738C34.498 26.9941 34.7617 28.9277 34.7617 31.9746C34.7617 34.2363 34.5039 35.9941 33.9883 37.248C33.4727 38.4902 32.582 39.4395 31.3164 40.0957C30.0508 40.7402 28.4277 41.0625 26.4473 41.0625C24.1973 41.0625 22.4277 40.6875 21.1387 39.9375C19.8613 39.1758 19.0176 38.25 18.6074 37.1602C18.209 36.0586 18.0098 34.1543 18.0098 31.4473V29.1973H25.1113V33.8203C25.1113 35.0508 25.1816 35.8359 25.3223 36.1758C25.4746 36.5039 25.8027 36.668 26.3066 36.668C26.8574 36.668 27.2207 36.457 27.3965 36.0352C27.5723 35.6133 27.6602 34.5117 27.6602 32.7305V30.7617C27.6602 29.6719 27.5371 28.875 27.291 28.3711C27.0449 27.8672 26.6816 27.5391 26.2012 27.3867C25.7207 27.2227 24.7891 27.1289 23.4062 27.1055V22.9746C25.0938 22.9746 26.1367 22.9102 26.5352 22.7812C26.9336 22.6523 27.2207 22.3711 27.3965 21.9375C27.5723 21.5039 27.6602 20.8242 27.6602 19.8984V18.3164C27.6602 17.3203 27.5547 16.6641 27.3438 16.3477C27.1445 16.0312 26.8281 15.873 26.3945 15.873C25.9023 15.873 25.5625 16.043 25.375 16.3828C25.1992 16.7109 25.1113 17.4199 25.1113 18.5098V20.8477H18.0098V18.4219C18.0098 15.7031 18.6309 13.8691 19.873 12.9199C21.1152 11.959 23.0898 11.4785 25.7969 11.4785C29.1836 11.4785 31.4805 12.1406 32.6875 13.4648C33.8945 14.7891 34.498 16.6289 34.498 18.9844C34.498 20.5781 34.2812 21.7324 33.8477 22.4473C33.4141 23.1504 32.6523 23.7949 31.5625 24.3809Z" fill="#FF5733"/>
</svg>
