<svg width="32" height="32" viewBox="0 0 32 32" fill="none" xmlns="http://www.w3.org/2000/svg">
<path fill-rule="evenodd" clip-rule="evenodd" d="M16.6811 24.3815C18.6187 24.3939 20.5529 24.2178 22.4564 23.8558C24.3346 23.4965 26.1769 22.9705 27.9617 22.2841L25.5473 19.1862C25.4831 19.104 25.4542 18.9996 25.4669 18.8961C25.4795 18.7925 25.5328 18.6982 25.615 18.6339L25.6292 18.6237L31.8026 14.2337L29.3357 13.1919C29.2396 13.1514 29.1635 13.0744 29.1241 12.9778C29.0848 12.8813 29.0854 12.773 29.1259 12.6769C29.1327 12.6611 29.1403 12.6457 29.1489 12.6308L31.4557 8.69591L22.0412 11.278C21.9769 11.2956 21.9092 11.2966 21.8444 11.2808C21.7796 11.265 21.7199 11.233 21.6709 11.1877C21.6219 11.1425 21.5853 11.0856 21.5643 11.0223C21.5434 10.9589 21.539 10.8914 21.5514 10.8258L22.6681 4.62466L20.0728 6.42489C20.0303 6.45442 19.9823 6.47525 19.9317 6.4862C19.8811 6.49715 19.8288 6.498 19.7779 6.4887C19.7269 6.47939 19.6783 6.46012 19.6349 6.43198C19.5914 6.40384 19.5539 6.3674 19.5245 6.32473C19.5104 6.30537 19.4981 6.28468 19.488 6.26296L16.2863 0L13.0821 6.26296C13.0719 6.28468 13.0597 6.30537 13.0456 6.32473C13.0162 6.3674 12.9787 6.40384 12.9352 6.43198C12.8918 6.46012 12.8432 6.47939 12.7922 6.4887C12.7413 6.498 12.689 6.49715 12.6384 6.4862C12.5878 6.47525 12.5398 6.45442 12.4973 6.42489L9.90201 4.62466L11.0227 10.8258C11.0351 10.8914 11.0307 10.9589 11.0098 11.0223C10.9888 11.0856 10.9522 11.1425 10.9032 11.1877C10.8542 11.233 10.7945 11.265 10.7297 11.2808C10.6649 11.2966 10.5972 11.2956 10.5329 11.278L1.11691 8.69591L3.42339 12.6305C3.43186 12.6455 3.43955 12.661 3.44642 12.6769C3.48687 12.773 3.4875 12.8813 3.44815 12.9778C3.4088 13.0744 3.33271 13.1514 3.2366 13.1919L0.77002 14.2337L6.94306 18.6229L6.95731 18.6332C7.03947 18.6975 7.09275 18.7918 7.10543 18.8953C7.11811 18.9989 7.08916 19.1032 7.02494 19.1855L4.61245 22.2833C6.39718 22.9698 8.23954 23.4958 10.1177 23.8551C12.0212 24.2171 13.9554 24.3931 15.893 24.3807V19.1171L9.87898 16.1139C9.78676 16.0665 9.71691 15.9847 9.68457 15.8862C9.65223 15.7877 9.65999 15.6804 9.70617 15.5875C9.75235 15.4947 9.83324 15.4238 9.93132 15.3901C10.0294 15.3565 10.1368 15.3628 10.2303 15.4077L15.8916 18.2355V9.12029C15.8916 9.01559 15.9331 8.91518 16.0072 8.84115C16.0812 8.76711 16.1816 8.72552 16.2863 8.72552C16.391 8.72552 16.4914 8.76711 16.5655 8.84115C16.6395 8.91518 16.6811 9.01559 16.6811 9.12029V18.2355L22.3424 15.4077C22.4358 15.3628 22.5432 15.3565 22.6413 15.3901C22.7394 15.4238 22.8203 15.4947 22.8665 15.5875C22.9127 15.6804 22.9204 15.7877 22.8881 15.8862C22.8557 15.9847 22.7859 16.0665 22.6937 16.1139L16.6811 19.1171V24.3807V24.3815ZM16.0067 26.4043C16.0073 26.3526 16.0181 26.3016 16.0384 26.2541C16.0587 26.2066 16.0882 26.1636 16.1251 26.1275C16.1621 26.0914 16.2058 26.063 16.2537 26.0437C16.3017 26.0245 16.3529 26.0149 16.4046 26.0155C16.4562 26.0161 16.5072 26.0269 16.5547 26.0472C16.6022 26.0676 16.6452 26.097 16.6813 26.134C16.7174 26.1709 16.7459 26.2146 16.7651 26.2626C16.7843 26.3105 16.7939 26.3618 16.7933 26.4134L16.7275 31.6112C16.7263 31.7155 16.6837 31.8151 16.6091 31.888C16.5345 31.9609 16.4339 32.0012 16.3296 32C16.2253 31.9988 16.1258 31.9562 16.0529 31.8815C15.98 31.8069 15.9397 31.7064 15.9409 31.6021L16.0067 26.4043Z" fill="#82441A"/>
</svg>
