<svg width="25" height="24" viewBox="0 0 25 24" fill="none" xmlns="http://www.w3.org/2000/svg">
<path d="M6.38893 21.0002L8.05782 19.0529L7.35404 19.0981L6.93592 17.453L5.29062 17.0351L5.29785 16.9211L3.68896 18.3002L5.78896 18.9002L6.38893 21.0002Z" fill="black"/>
<path d="M5.28185 12.7476L4.7053 14.1927L6.02074 15.0234L5.9211 16.5759L7.42912 16.9594L7.81216 18.4674L9.36492 18.3682L10.1957 19.684L11.641 19.1075L12.8389 20.1L14.0365 19.1071L15.4816 19.684L15.7092 19.3231C15.4114 18.799 15.2389 18.1952 15.2389 17.5504C15.2389 16.8962 15.4171 16.2841 15.7234 15.7546C14.9028 16.3185 13.9099 16.65 12.8389 16.65C10.0222 16.65 7.73887 14.3666 7.73887 11.55C7.73887 8.73336 10.0222 6.45 12.8389 6.45C15.6555 6.45 17.9389 8.73336 17.9389 11.55C17.9389 12.621 17.6074 13.6137 17.0434 14.4346C17.5726 14.1283 18.1849 13.95 18.8389 13.95C19.4836 13.95 20.0878 14.1225 20.6118 14.4207L20.9724 14.1931L20.3958 12.7477L21.3889 11.55L20.3959 10.3524L20.9725 8.90731L19.6571 8.07656L19.7567 6.5238L18.2487 6.14076L17.8656 4.63274L16.3129 4.73198L15.4819 3.4164L14.0365 3.99295L12.8389 3L11.6413 3.99295L10.1962 3.4164L9.3655 4.73184L7.81273 4.6322L7.42969 6.14022L5.92167 6.52326L6.02091 8.07603L4.70534 8.90704L5.28188 10.3524L4.28894 11.55L5.28185 12.7476Z" fill="black"/>
<path d="M15.3632 9.02589C15.129 8.79165 14.7492 8.79165 14.5148 9.02589L10.3148 13.2259C10.0805 13.4601 10.0805 13.8399 10.3148 14.0743C10.4321 14.1916 10.5853 14.2502 10.7389 14.2502C10.8926 14.2502 11.0459 14.1916 11.1631 14.0743L15.3631 9.87433C15.5976 9.63995 15.5976 9.26013 15.3632 9.02589Z" fill="black"/>
<path d="M21.8391 17.55C21.8391 15.893 20.4961 14.55 18.8391 14.55C17.1822 14.55 15.8391 15.893 15.8391 17.55C15.8391 19.207 17.1822 20.55 18.8391 20.55C20.4961 20.55 21.8391 19.207 21.8391 17.55ZM18.5391 15.45H19.1391V17.4259L20.2513 18.538L19.8271 18.9622L18.5392 17.6742L18.5391 15.45Z" fill="black"/>
<path d="M11.6391 9.75002C11.6391 10.0814 11.3704 10.35 11.0391 10.35C10.7078 10.35 10.4391 10.0814 10.4391 9.75002C10.4391 9.41869 10.7078 9.15004 11.0391 9.15004C11.3704 9.15004 11.6391 9.41869 11.6391 9.75002Z" fill="black"/>
<path d="M15.2391 13.35C15.2391 13.6814 14.9704 13.95 14.6391 13.95C14.3078 13.95 14.0391 13.6814 14.0391 13.35C14.0391 13.0187 14.3078 12.75 14.6391 12.75C14.9704 12.75 15.2391 13.0187 15.2391 13.35Z" fill="black"/>
</svg>
