<svg width="101" height="100" viewBox="0 0 101 100" fill="none" xmlns="http://www.w3.org/2000/svg">
<path d="M100.226 50.0006C100.226 47.2166 97.999 44.9894 95.215 44.9894H82.2994L93.7706 33.5182C95.776 31.5128 95.776 28.3938 93.7706 26.3929C91.7652 24.3875 88.6462 24.3875 86.6453 26.3929L68.1573 44.9889H55.2372V32.0689L73.8333 13.4728C75.8387 11.4675 75.8387 8.34847 73.8333 6.34754C71.8279 4.34217 68.7089 4.34217 66.708 6.34754L55.2368 17.9268V5.01122C55.2368 2.22721 53.0096 0 50.2256 0C47.4415 0 45.2143 2.22721 45.2143 5.01122V17.9313L33.7431 6.45556C31.7377 4.45018 28.6187 4.45018 26.6178 6.45556C24.6124 8.46094 24.6124 11.5799 26.6178 13.5809L45.1059 32.1769V45.097L32.1858 45.1013L13.6978 26.3916C11.6924 24.3863 8.57342 24.3863 6.57249 26.3916C4.56711 28.397 4.56711 31.516 6.57249 33.5169L18.0437 44.9882H5.01122C2.22721 44.9882 0 47.2154 0 49.9994C0 52.7834 2.22721 55.0106 5.01122 55.0106H18.0393L6.57249 66.4818C4.56711 68.4872 4.56711 71.6062 6.57249 73.6071C8.57787 75.6125 11.6969 75.6125 13.6978 73.6071L32.2939 55.0111H45.2139V67.9311L26.6178 86.4147C24.6124 88.4201 24.6124 91.5391 26.6178 93.54C28.6232 95.5454 31.7422 95.5454 33.7431 93.54L45.2143 82.0688V94.9888C45.2143 97.7728 47.4415 100 50.2256 100C53.0096 100 55.2368 97.7728 55.2368 94.9888V82.0732L66.708 93.5444C68.7134 95.5498 71.8324 95.5498 73.8333 93.5444C75.8387 91.5391 75.8387 88.4201 73.8333 86.4192L55.2372 67.9311V55.0111H68.1573L86.7533 73.6071C88.7587 75.6125 91.8777 75.6125 93.8786 73.6071C95.884 71.6018 95.884 68.4828 93.8786 66.4818L82.2994 55.0106H95.2194C97.9991 55.0106 100.226 52.7834 100.226 49.9994L100.226 50.0006Z" fill="#0080FF"/>
</svg>
