<svg width="29" height="32" viewBox="0 0 29 32" fill="none" xmlns="http://www.w3.org/2000/svg">
<path fill-rule="evenodd" clip-rule="evenodd" d="M14.3694 31.9959C14.306 31.9959 14.2426 31.9821 14.1819 31.9504C11.2571 30.4329 9.47073 28.2028 9.17857 25.7509L12.911 19.3362C13.3589 19.5333 13.8496 19.6435 14.3678 19.6435C14.8861 19.6435 15.3809 19.5346 15.8247 19.3403L19.5543 25.7977C19.2469 28.2318 17.462 30.4454 14.5537 31.9545C14.4931 31.9862 14.4297 32 14.3663 32L14.3694 31.9959ZM12.2068 18.9268L8.43843 25.4022C7.68037 25.7165 6.85475 25.8709 5.97264 25.8709C4.26907 25.8709 2.42337 25.2713 0.643969 24.1342C0.530949 24.0639 0.463411 23.944 0.45652 23.8089C0.307665 20.5382 1.33451 17.885 3.29029 16.4034H10.7456C10.8613 17.4344 11.4085 18.3372 12.2024 18.9257L12.2068 18.9268ZM10.7486 15.5927H3.29331C1.33886 14.1069 0.312048 11.4577 0.459537 8.18721C0.466428 8.05627 0.533966 7.9336 0.646986 7.86193C2.42501 6.72619 4.26788 6.12526 5.97566 6.12526C6.87156 6.12526 7.7082 6.2879 8.48142 6.6118L12.211 13.0692C11.4171 13.6591 10.8672 14.5619 10.7541 15.5915L10.7486 15.5927ZM12.9125 12.6597L9.18293 6.20228C9.49029 3.76821 11.2752 1.5546 14.1835 0.0454826C14.2992 -0.0151609 14.4412 -0.0151609 14.557 0.0454826C17.4638 1.55608 19.2459 3.76835 19.5575 6.20228L15.8279 12.6597C15.38 12.4626 14.8893 12.3565 14.3711 12.3565C13.8528 12.3565 13.358 12.4654 12.9142 12.6597H12.9125ZM16.5292 13.0691L20.2587 6.61165C21.0278 6.28637 21.8672 6.12511 22.7645 6.12511C24.4681 6.12511 26.311 6.72467 28.0932 7.86178C28.2062 7.93208 28.2737 8.05199 28.2806 8.18706C28.4295 11.4578 27.4026 14.111 25.4469 15.5926H17.9916C17.8758 14.5588 17.3286 13.6561 16.5347 13.0703L16.5292 13.0691ZM17.9902 16.4032H25.4454C27.3999 17.889 28.4267 20.5382 28.2792 23.8087C28.2723 23.9396 28.2048 24.0623 28.0917 24.134C26.3137 25.2697 24.4709 25.8706 22.7631 25.8706C21.8672 25.8706 21.0305 25.708 20.2573 25.3841L16.5277 18.9267C17.3216 18.3368 17.8716 17.434 17.9846 16.4044L17.9902 16.4032ZM14.3693 13.1683C12.809 13.1683 11.5396 14.4391 11.5396 15.9979C11.5396 17.5582 12.8104 18.8276 14.3693 18.8276C15.9295 18.8276 17.1989 17.5568 17.1989 15.9979C17.1989 14.4377 15.9281 13.1683 14.3693 13.1683Z" fill="#FF00C4"/>
</svg>
