<svg width="100" height="74" viewBox="0 0 100 74" fill="none" xmlns="http://www.w3.org/2000/svg">
<path d="M85.7398 32.1712C84.9881 31.8985 84.1908 31.694 83.3936 31.5577C83.0975 31.5122 82.8013 31.4667 82.4824 31.4213L78.3822 31.3986C79.2478 31.3077 80.1134 31.2622 80.979 31.3077C81.4802 31.3304 81.9813 31.3759 82.4824 31.4213C82.4824 31.2622 82.4824 31.1032 82.4824 30.9441C82.4824 13.9013 68.6329 0.108032 51.5715 0.108032C34.51 0.108032 20.6605 13.9241 20.6605 30.9441V30.9668C20.9566 30.9441 21.2527 30.9441 21.5489 30.9441H21.8905C22.3461 30.9441 22.8017 30.9668 23.2573 30.9896L20.6377 30.9668C15.0569 31.1941 9.99994 33.5346 6.30976 37.2386C2.41456 41.1243 0 46.4871 0 52.418C0 64.2798 9.63548 73.8919 21.5261 73.8919H78.4733C84.4186 73.8919 89.7945 71.4832 93.6897 67.5975C97.5848 63.7117 99.9994 58.3489 99.9994 52.418C100.068 43.0786 94.0997 35.1253 85.7398 32.1712Z" fill="#607299"/>
</svg>
